<?xml version="1.0" encoding="UTF-8" standalone="no"?>
<svg
   xmlns:dc="http://purl.org/dc/elements/1.1/"
   xmlns:cc="http://creativecommons.org/ns#"
   xmlns:rdf="http://www.w3.org/1999/02/22-rdf-syntax-ns#"
   xmlns:svg="http://www.w3.org/2000/svg"
   xmlns="http://www.w3.org/2000/svg"
   viewBox="0 0 634.54669 72.839996"
   height="72.839996"
   width="634.54669"
   xml:space="preserve"
   id="svg2"
   version="1.1"><metadata
     id="metadata8"><rdf:RDF><cc:Work
         rdf:about=""><dc:format>image/svg+xml</dc:format><dc:type
           rdf:resource="http://purl.org/dc/dcmitype/StillImage" /><dc:title></dc:title></cc:Work></rdf:RDF></metadata><defs
     id="defs6" /><g
     transform="matrix(1.3333333,0,0,-1.3333333,0,72.84)"
     id="g10"><g
       transform="scale(0.1)"
       id="g12"><path
         id="path14"
         style="fill:#4cb9e2;fill-opacity:1;fill-rule:nonzero;stroke:none"
         d="M 3993.38,9.12109 3823.14,537.234 h 116.52 l 78.69,-253.461 41.61,-165.703 h 2.28 l 40.09,165.703 78.69,253.461 h 112.73 L 4122.02,9.12109 h -128.64" /><path
         id="path16"
         style="fill:#4cb9e2;fill-opacity:1;fill-rule:nonzero;stroke:none"
         d="m 4326.3,269.398 c 0,178.559 91.57,276.926 233.8,276.926 96.85,0 158.9,-39.351 197.48,-124.09 l -99.11,-51.453 c -13.62,43.887 -41.62,73.395 -98.37,73.395 -67.33,0 -111.98,-45.399 -111.98,-128.629 v -84.738 c 0,-83.231 44.65,-128.625 111.98,-128.625 56.75,0 89.29,35.554 105.17,78.695 l 93.83,-54.477 C 4719.75,46.1953 4656.95,0.0390625 4560.1,0.0390625 4417.87,0.0390625 4326.3,90.8359 4326.3,269.398" /><path
         id="path18"
         style="fill:#231f20;fill-opacity:1;fill-rule:nonzero;stroke:none"
         d="M 3509.33,9.05078 V 405.098 h 111.65 v -85.996 h 3.77 c 9.05,43.75 39.22,85.996 101.09,85.996 h 19.61 V 300.996 h -27.91 c -64.87,0 -96.56,-14.332 -96.56,-60.351 V 9.05078 Z M 3175.9,250.453 v -6.035 h 138.8 v 6.789 c 0,48.281 -21.87,80.715 -66.38,80.715 -44.51,0 -72.42,-32.434 -72.42,-81.469 z m -115.42,-42.996 c 0,125.223 66.39,206.691 185.57,206.691 131.27,0 184.08,-95.046 184.08,-202.171 V 178.785 H 3175.9 v -6.035 c 0,-52.051 27.91,-85.2422 87.51,-85.2422 46.77,0 72.42,21.8752 97.31,47.5272 l 55.83,-69.4061 C 3381.09,24.8906 3323,0 3250.59,0 3129.13,0 3060.48,80.7188 3060.48,207.457 Z m -639.7,197.641 h 107.87 l 38.47,-159.926 27.17,-120.699 h 3.01 l 31.68,120.699 45.27,159.926 h 101.84 l 46.01,-159.926 32.44,-120.699 h 3.02 l 27.16,120.699 38.47,159.926 h 103.35 L 2917.15,9.05078 h -116.93 l -48.27,167.47622 -27.91,102.594 h -2.27 L 2694.62,176.527 2646.34,9.05078 H 2531.67 Z M 2270.66,166.719 v 80.719 c 0,49.789 -25.66,78.449 -69.41,78.449 -43.75,0 -69.39,-28.66 -69.39,-78.449 v -80.719 c 0,-49.789 25.64,-78.4573 69.39,-78.4573 43.75,0 69.41,28.6683 69.41,78.4573 z m -254.98,40.738 c 0,127.484 69.4,206.691 185.57,206.691 116.18,0 185.58,-79.207 185.58,-206.691 C 2386.83,79.9648 2317.43,0 2201.25,0 2085.08,0 2015.68,79.9648 2015.68,207.457 Z m -334.19,91.273 h 120.7 c 33.94,0 55.07,18.106 55.07,52.051 v 33.192 c 0,33.953 -21.13,52.058 -55.07,52.058 h -120.7 z M 1566.83,9.05078 V 535.605 h 248.94 c 98.07,0 159.93,-68.648 159.93,-168.222 0,-99.582 -61.86,-168.227 -159.93,-168.227 H 1681.49 V 9.05078 Z M 1228.88,452.625 h -3.78 l -44.5,-88.262 -125.99,-229.328 -125.219,229.328 -44.508,87.508 h -3.774 V 9.05078 H 819.246 V 535.605 h 82.984 l 150.88,-283.648 h 3.01 l 151.63,283.648 h 82.99 V 9.05078 h -61.86 z M 390.008,64.8711 H 546.16 c 54.317,0 87.512,28.6719 87.512,81.4809 v 25.644 c 0,52.809 -33.195,81.477 -87.512,81.477 H 390.008 Z m 0,242.9099 h 145.597 c 49.786,0 79.961,26.407 79.961,73.176 v 25.652 c 0,46.77 -30.175,73.172 -79.961,73.172 H 390.008 Z m -63.367,227.824 h 216.504 c 86.757,0 140.312,-53.558 140.312,-135.785 0,-78.453 -50.535,-106.367 -85.242,-111.652 v -4.52 C 635.938,281.383 701.563,248.945 701.563,161.434 701.563,74.6836 643.477,9.05078 565.781,9.05078 H 326.641 Z M 0,9.05078 V 61.8594 H 73.9297 V 482.797 H 0 v 52.808 h 211.227 v -52.808 h -73.93 V 61.8594 h 73.93 V 9.05078 H 0" /></g></g></svg>