<svg xmlns="http://www.w3.org/2000/svg" xmlns:svg="http://www.w3.org/2000/svg" xmlns:xlink="http://www.w3.org/1999/xlink" id="svg8" x="0" y="0" version="1.1" viewBox="0 0 55.9 43.2" xml:space="preserve" style="enable-background:new 0 0 55.9 43.2"><style type="text/css">.st0{fill:#0089d6}</style><g id="layer1" transform="translate(677.9313,-313.85407)"><g id="layer1-1" transform="matrix(0.03978217,0,0,0.03978217,-658.51488,317.36166)"><path id="path21" d="M160.7,940.1c180.2-31.8,329-58.2,330.7-58.5l3.1-0.7 L324.4,678.6c-93.6-111.3-170.1-202.8-170.1-203.3c0-1,175.7-484.7,176.6-486.4c0.3-0.6,119.9,205.8,289.8,500.3 c159.1,275.7,290.2,503,291.4,505.1l2.2,3.9L373.7,998l-540.6-0.1C-166.9,998,160.7,940.1,160.7,940.1z M-488.1,878.4 c0-0.3,80.2-139.4,178.1-309.2l178.1-308.7L75.7,86.3C189.9-9.5,283.6-88,284-88.2c0.4-0.1-1.1,3.6-3.3,8.4 C278.5-75,177,142.6,55.3,403.7l-221.4,474.8l-161,0.2C-415.6,878.8-488.1,878.7-488.1,878.4z" class="st0"/></g></g></svg>