<svg xmlns="http://www.w3.org/2000/svg" xmlns:svg="http://www.w3.org/2000/svg" id="Layer_1" x="0" y="0" enable-background="new 0 0 31 31" version="1.1" viewBox="0 0 31 31" xml:space="preserve"><metadata id="metadata28"/><g id="Oracle_Siebel"><g id="g8"><rect id="rect2" width="31" height="31" fill="#ED2224"/><path id="path4" fill="#FFF" d="M11.6,22.8c-3.8,0-6.9-3.1-6.9-6.9c0-3.8,3.1-6.9,6.9-6.9h8c3.8,0,6.9,3.1,6.9,6.9c0,3.8-3.1,6.9-6.9,6.9 L11.6,22.8z"/><path id="path6" fill="#ED2224" d="M19.4,20.4c2.5,0,4.4-2,4.4-4.4c0-2.5-2-4.4-4.4-4.4l-7.6,0c-2.5,0-4.4,2-4.4,4.4c0,2.4,2,4.4,4.4,4.4 H19.4z"/></g></g></svg>