<svg xmlns="http://www.w3.org/2000/svg" xmlns:svg="http://www.w3.org/2000/svg" id="CMYK" width="109.6" height="71.9" x="0" y="0" version="1.1" viewBox="-151 361.1 109.6 71.9" xml:space="preserve"><metadata id="metadata138"/><style id="style3" type="text/css">.st0{fill:#fbb22e}.st1{fill:#ee404f}.st2{fill:#9d1c32}.st3{fill:#b5782b}</style><g id="XMLID_52_" transform="translate(0.51778502,0.99983055)"><g id="XMLID_53_"><g id="XMLID_88_"><rect style="fill:#fbb22e" id="XMLID_187_" width="4.2" height="4.2" x="-113.7" y="360.8" class="st0"/><rect style="fill:#ee404f" id="XMLID_186_" width="4.2" height="4.2" x="-121.1" y="360.8" class="st1"/><rect style="fill:#ee404f" id="XMLID_185_" width="4.2" height="4.2" x="-113.7" y="368.3" class="st1"/><rect style="fill:#9d1c32" id="XMLID_184_" width="4.2" height="4.2" x="-121.1" y="368.3" class="st2"/><rect style="fill:#fbb22e" id="XMLID_183_" width="4.2" height="4.2" x="-98.9" y="375.7" class="st0"/><rect style="fill:#b5782b" id="XMLID_182_" width="4.2" height="4.2" x="-106.3" y="383.1" class="st3"/><rect style="fill:#ee404f" id="XMLID_181_" width="4.2" height="4.2" x="-106.3" y="375.7" class="st1"/><rect style="fill:#ee404f" id="XMLID_180_" width="4.2" height="4.2" x="-98.9" y="368.3" class="st1"/><rect style="fill:#9d1c32" id="XMLID_179_" width="4.2" height="4.2" x="-106.3" y="368.3" class="st2"/><rect style="fill:#fbb22e" id="XMLID_178_" width="4.2" height="4.2" x="-84" y="375.7" class="st0"/><rect style="fill:#b5782b" id="XMLID_177_" width="4.2" height="4.2" x="-69.2" y="375.7" class="st3"/><rect style="fill:#ee404f" id="XMLID_176_" width="4.2" height="4.2" x="-91.4" y="375.7" class="st1"/><rect style="fill:#ee404f" id="XMLID_175_" width="4.2" height="4.2" x="-84" y="368.3" class="st1"/><rect style="fill:#9d1c32" id="XMLID_174_" width="4.2" height="4.2" x="-106.3" y="360.8" class="st2"/><rect style="fill:#fbb22e" id="XMLID_173_" width="4.2" height="4.2" x="-113.7" y="375.7" class="st0"/><rect style="fill:#fbb22e" id="XMLID_172_" width="4.2" height="4.2" x="-128.5" y="368.3" class="st0"/><rect style="fill:#ee404f" id="XMLID_171_" width="4.2" height="4.2" x="-121.1" y="375.7" class="st1"/><rect style="fill:#b5782b" id="XMLID_170_" width="4.2" height="4.2" x="-113.7" y="383.1" class="st3"/><rect style="fill:#b5782b" id="XMLID_169_" width="4.2" height="4.2" x="-128.5" y="375.7" class="st3"/><rect style="fill:#9d1c32" id="XMLID_168_" width="4.2" height="4.2" x="-121.1" y="383.1" class="st2"/><rect style="fill:#b5782b" id="XMLID_167_" width="4.2" height="4.2" x="-98.9" y="390.6" class="st3"/><rect style="fill:#ee404f" id="XMLID_166_" width="4.2" height="4.2" x="-106.3" y="390.6" class="st1"/><rect style="fill:#ee404f" id="XMLID_165_" width="4.2" height="4.2" x="-98.9" y="383.1" class="st1"/><rect style="fill:#b5782b" id="XMLID_164_" width="4.2" height="4.2" x="-106.3" y="427.8" class="st3"/><rect style="fill:#b5782b" id="XMLID_163_" width="4.2" height="4.2" x="-113.7" y="427.8" class="st3"/><rect style="fill:#ee404f" id="XMLID_162_" width="4.2" height="4.2" x="-98.9" y="427.8" class="st1"/><rect style="fill:#ee404f" id="XMLID_161_" width="4.2" height="4.2" x="-91.4" y="420.3" class="st1"/><rect style="fill:#fbb22e" id="XMLID_160_" width="4.2" height="4.2" x="-113.7" y="390.6" class="st0"/><rect style="fill:#fbb22e" id="XMLID_159_" width="4.2" height="4.2" x="-113.7" y="420.4" class="st0"/><rect style="fill:#ee404f" id="XMLID_158_" width="4.2" height="4.2" x="-121.1" y="390.6" class="st1"/><rect style="fill:#b5782b" id="XMLID_157_" width="4.2" height="4.2" x="-113.7" y="398" class="st3"/><rect style="fill:#9d1c32" id="XMLID_156_" width="4.2" height="4.2" x="-121.1" y="398" class="st2"/><rect style="fill:#fbb22e" id="XMLID_155_" width="4.2" height="4.2" x="-98.9" y="405.4" class="st0"/><rect style="fill:#b5782b" id="XMLID_154_" width="4.2" height="4.2" x="-106.3" y="412.9" class="st3"/><rect style="fill:#ee404f" id="XMLID_153_" width="4.2" height="4.2" x="-106.3" y="405.4" class="st1"/><rect style="fill:#ee404f" id="XMLID_152_" width="4.2" height="4.2" x="-98.9" y="398" class="st1"/><rect style="fill:#9d1c32" id="XMLID_151_" width="4.2" height="4.2" x="-106.3" y="398" class="st2"/><rect style="fill:#fbb22e" id="XMLID_150_" width="4.2" height="4.2" x="-113.7" y="405.4" class="st0"/><rect style="fill:#b5782b" id="XMLID_149_" width="4.2" height="4.2" x="-121.1" y="405.4" class="st3"/><rect style="fill:#b5782b" id="XMLID_148_" width="4.2" height="4.2" x="-135.9" y="383.1" class="st3"/><rect style="fill:#fbb22e" id="XMLID_147_" width="4.2" height="4.2" x="-128.5" y="390.6" class="st0"/><rect style="fill:#ee404f" id="XMLID_146_" width="4.2" height="4.2" x="-121.1" y="420.3" class="st1"/><rect style="fill:#ee404f" id="XMLID_145_" width="4.2" height="4.2" x="-135.9" y="390.6" class="st1"/><rect style="fill:#ee404f" id="XMLID_144_" width="4.2" height="4.2" x="-128.5" y="383.1" class="st1"/><rect style="fill:#fbb22e" id="XMLID_143_" width="4.2" height="4.2" x="-143.3" y="390.6" class="st0"/><rect style="fill:#ee404f" id="XMLID_142_" width="4.2" height="4.2" x="-150.7" y="390.6" class="st1"/><rect style="fill:#ee404f" id="XMLID_141_" width="4.2" height="4.2" x="-143.3" y="398" class="st1"/><rect style="fill:#9d1c32" id="XMLID_140_" width="4.2" height="4.2" x="-150.7" y="398" class="st2"/><rect style="fill:#fbb22e" id="XMLID_139_" width="4.2" height="4.2" x="-128.5" y="405.4" class="st0"/><rect style="fill:#ee404f" id="XMLID_138_" width="4.2" height="4.2" x="-135.9" y="405.4" class="st1"/><rect style="fill:#ee404f" id="XMLID_137_" width="4.2" height="4.2" x="-128.5" y="398" class="st1"/><rect style="fill:#ee404f" id="XMLID_136_" width="4.2" height="4.2" x="-128.5" y="412.9" class="st1"/><rect style="fill:#b5782b" id="XMLID_135_" width="4.2" height="4.2" x="-135.9" y="398" class="st3"/><rect style="fill:#ee404f" id="XMLID_134_" width="4.2" height="4.2" x="-143.3" y="412.9" class="st1"/><rect style="fill:#9d1c32" id="XMLID_133_" width="4.2" height="4.2" x="-135.9" y="412.9" class="st2"/><rect style="fill:#fbb22e" id="XMLID_132_" width="4.2" height="4.2" x="-143.3" y="405.4" class="st0"/><rect style="fill:#ee404f" id="XMLID_131_" width="4.2" height="4.2" x="-150.7" y="405.4" class="st1"/><rect style="fill:#9d1c32" id="XMLID_130_" width="4.2" height="4.2" x="-76.6" y="368.3" class="st2"/><rect style="fill:#ee404f" id="XMLID_129_" width="4.2" height="4.2" x="-76.6" y="375.7" class="st1"/><rect style="fill:#fbb22e" id="XMLID_128_" width="4.2" height="4.2" x="-76.6" y="412.9" class="st0"/><rect style="fill:#b5782b" id="XMLID_127_" width="4.2" height="4.2" x="-91.4" y="412.9" class="st3"/><rect style="fill:#ee404f" id="XMLID_126_" width="4.2" height="4.2" x="-76.6" y="420.3" class="st1"/><rect style="fill:#9d1c32" id="XMLID_125_" width="4.2" height="4.2" x="-84" y="420.3" class="st2"/><rect style="fill:#ee404f" id="XMLID_124_" width="4.2" height="4.2" x="-84" y="412.9" class="st1"/><rect style="fill:#ee404f" id="XMLID_123_" width="4.2" height="4.2" x="-69.2" y="412.9" class="st1"/><rect style="fill:#ee404f" id="XMLID_122_" width="4.2" height="4.2" x="-47" y="390.6" class="st1"/><rect style="fill:#fbb22e" id="XMLID_121_" width="4.2" height="4.2" x="-54.4" y="390.6" class="st0"/><rect style="fill:#ee404f" id="XMLID_120_" width="4.2" height="4.2" x="-61.8" y="390.6" class="st1"/><rect style="fill:#ee404f" id="XMLID_119_" width="4.2" height="4.2" x="-54.4" y="398" class="st1"/><rect style="fill:#9d1c32" id="XMLID_118_" width="4.2" height="4.2" x="-61.8" y="398" class="st2"/><rect style="fill:#ee404f" id="XMLID_117_" width="4.2" height="4.2" x="-91.4" y="405.4" class="st1"/><rect style="fill:#9d1c32" id="XMLID_116_" width="4.2" height="4.2" x="-47" y="398" class="st2"/><rect style="fill:#fbb22e" id="XMLID_115_" width="4.2" height="4.2" x="-84" y="405.4" class="st0"/><rect style="fill:#ee404f" id="XMLID_114_" width="4.2" height="4.2" x="-76.6" y="405.4" class="st1"/><rect style="fill:#fbb22e" id="XMLID_113_" width="4.2" height="4.2" x="-69.2" y="390.6" class="st0"/><rect style="fill:#9d1c32" id="XMLID_112_" width="4.2" height="4.2" x="-76.6" y="390.6" class="st2"/><rect style="fill:#fbb22e" id="XMLID_111_" width="4.2" height="4.2" x="-84" y="390.6" class="st0"/><rect style="fill:#ee404f" id="XMLID_110_" width="4.2" height="4.2" x="-91.4" y="390.6" class="st1"/><rect style="fill:#9d1c32" id="XMLID_109_" width="4.2" height="4.2" x="-84" y="398" class="st2"/><rect style="fill:#b5782b" id="XMLID_108_" width="4.2" height="4.2" x="-91.4" y="398" class="st3"/><rect style="fill:#fbb22e" id="XMLID_107_" width="4.2" height="4.2" x="-69.2" y="405.4" class="st0"/><rect style="fill:#ee404f" id="XMLID_106_" width="4.2" height="4.2" x="-61.8" y="405.4" class="st1"/><rect style="fill:#ee404f" id="XMLID_105_" width="4.2" height="4.2" x="-69.2" y="398" class="st1"/><rect style="fill:#b5782b" id="XMLID_104_" width="4.2" height="4.2" x="-76.6" y="398" class="st3"/><rect style="fill:#fbb22e" id="XMLID_103_" width="4.2" height="4.2" x="-54.4" y="405.4" class="st0"/><rect style="fill:#ee404f" id="XMLID_102_" width="4.2" height="4.2" x="-47" y="405.4" class="st1"/><rect style="fill:#fbb22e" id="XMLID_101_" width="4.2" height="4.2" x="-91.4" y="383.1" class="st0"/><rect style="fill:#ee404f" id="XMLID_100_" width="4.2" height="4.2" x="-84" y="383.1" class="st1"/><rect style="fill:#fbb22e" id="XMLID_99_" width="4.2" height="4.2" x="-76.6" y="383.1" class="st0"/><rect style="fill:#ee404f" id="XMLID_98_" width="4.2" height="4.2" x="-69.2" y="383.1" class="st1"/><rect style="fill:#fbb22e" id="XMLID_97_" width="4.2" height="4.2" x="-61.8" y="383.1" class="st0"/><rect style="fill:#ee404f" id="XMLID_96_" width="4.2" height="4.2" x="-54.4" y="383.1" class="st1"/><rect style="fill:#ee404f" id="XMLID_95_" width="4.2" height="4.2" x="-61.8" y="412.9" class="st1"/><rect style="fill:#fbb22e" id="XMLID_94_" width="4.2" height="4.2" x="-54.4" y="412.9" class="st0"/><rect style="fill:#b5782b" id="XMLID_93_" width="4.2" height="4.2" x="-113.7" y="412.9" class="st3"/><rect style="fill:#9d1c32" id="XMLID_92_" width="4.2" height="4.2" x="-121.1" y="412.9" class="st2"/><rect style="fill:#b5782b" id="XMLID_91_" width="4.2" height="4.2" x="-98.9" y="420.3" class="st3"/><rect style="fill:#ee404f" id="XMLID_90_" width="4.2" height="4.2" x="-106.3" y="420.3" class="st1"/><rect style="fill:#fbb22e" id="XMLID_89_" width="4.2" height="4.2" x="-98.9" y="412.9" class="st0"/></g></g></g></svg>