<svg xmlns="http://www.w3.org/2000/svg" xmlns:svg="http://www.w3.org/2000/svg" id="svg8" width="5cm" height="5cm" version="1.1" viewBox="0 0 50 50"><metadata id="metadata5"/><g id="layer1" transform="translate(0,-247.00002)" style="display:inline"><g id="g4361" transform="matrix(0.978121,0,0,0.978121,-33.360291,-0.6207906)"><g id="g4356"><path style="fill:#326de6;fill-opacity:1;fill-rule:evenodd;stroke-width:.29651502" id="path3515" d="m 52.786398,310.89259 -19.555971,0.0601 a 3.175,3.175 25.538252 0 1 -2.485976,-1.18778 L 18.504528,294.51287 a 3.175,3.175 76.966823 0 1 -0.621331,-2.68418 l 4.293036,-19.07904 a 3.175,3.175 128.39539 0 1 1.711189,-2.15934 l 17.593251,-8.53915 a 3.175,3.175 179.82397 0 1 2.755149,-0.008 l 17.64539,8.43088 a 3.175,3.175 51.252537 0 1 1.724425,2.14879 l 4.41019,19.05229 a 3.175,3.175 102.68111 0 1 -0.604826,2.68795 l -12.145973,15.32694 a 3.175,3.175 154.10968 0 1 -2.47863,1.20304 z" transform="rotate(0.2,2199.3965,5058.3309)"/></g><path id="path4353" d="m 59.20602,295.48257 c -0.207887,-0.0959 -0.474733,-0.27962 -0.592992,-0.40817 -0.208541,-0.22669 -10.227127,-24.75626 -10.362028,-25.37045 -0.168328,-0.7664 0.521645,-1.7846 1.365499,-2.01509 0.732496,-0.20008 1.692369,0.19629 2.019159,0.83378 0.07189,0.14024 1.948805,4.74108 4.170928,10.2241 2.222123,5.48301 4.068721,10.00147 4.103552,10.04101 0.03483,0.0395 1.821778,-4.38278 3.970994,-9.82738 2.149215,-5.4446 3.986874,-10.0593 4.083687,-10.25489 0.362361,-0.73208 1.359717,-1.16701 2.109036,-0.91972 0.421561,0.13913 0.948178,0.58738 1.151111,0.97981 0.37275,0.72082 0.508716,0.33147 -4.766134,13.64815 -3.076063,7.7657 -4.998617,12.49872 -5.138858,12.65104 -0.305765,0.33209 -0.902307,0.59226 -1.358001,0.59226 -0.207887,0 -0.548066,-0.0785 -0.755953,-0.17445 z" style="fill:#fff;fill-opacity:1;stroke-width:1.34464288;stroke-linecap:round;stroke-linejoin:round;stroke-miterlimit:4;stroke-dasharray:none"/></g></g></svg>